<?xml version="1.0" standalone="no"?>
<!DOCTYPE svg PUBLIC "-//W3C//DTD SVG 20010904//EN"
 "http://www.w3.org/TR/2001/REC-SVG-20010904/DTD/svg10.dtd">
<svg version="1.0" xmlns="http://www.w3.org/2000/svg"
 width="1400.000000pt" height="1400.000000pt" viewBox="0 0 1400.000000 1400.000000"
 preserveAspectRatio="xMidYMid meet">
<metadata>
Created by potrace 1.14, written by Peter Selinger 2001-2017
</metadata>
<g transform="translate(0.000000,1400.000000) scale(0.100000,-0.100000)"
fill="#000000" stroke="none">
<path d="M7007 11778 c-146 -150 -411 -510 -564 -763 -81 -133 -188 -339 -243
-465 -22 -52 -45 -103 -50 -112 -6 -10 -10 -25 -10 -33 0 -8 -4 -15 -8 -15 -5
0 -9 -6 -9 -12 -1 -7 -22 -71 -47 -143 -42 -117 -82 -247 -91 -293 -1 -9 -8
-37 -15 -62 -7 -25 -14 -55 -16 -67 -5 -30 -12 -62 -19 -93 -3 -14 -7 -38 -10
-55 -2 -16 -6 -39 -8 -50 -5 -23 -18 -117 -23 -160 -1 -16 -6 -66 -11 -110
-16 -158 -7 -704 12 -806 2 -10 6 -42 9 -71 9 -75 22 -164 30 -203 2 -5 6 -32
10 -60 4 -27 9 -56 11 -63 6 -18 6 -15 26 -104 11 -46 21 -90 24 -98 4 -14 31
-116 39 -151 18 -70 129 -377 189 -519 5 -14 11 -32 13 -40 2 -8 8 -16 13 -18
6 -2 11 -10 11 -19 0 -17 174 -369 214 -432 14 -22 26 -45 26 -51 0 -5 5 -10
10 -10 6 0 10 -5 10 -10 0 -6 16 -36 35 -66 19 -30 35 -57 35 -59 0 -9 54 -90
63 -93 4 -2 7 -7 7 -12 0 -5 24 -43 53 -86 28 -42 57 -84 62 -93 26 -41 50
-76 55 -81 3 -3 22 -27 41 -55 18 -27 39 -55 44 -61 6 -6 17 -22 25 -34 8 -12
20 -28 25 -34 6 -6 32 -40 59 -76 59 -77 101 -120 118 -121 7 0 21 -2 31 -4 9
-2 17 1 17 6 0 5 6 9 13 9 13 0 48 47 68 93 7 15 16 27 21 27 4 0 8 5 8 11 0
13 72 133 83 137 4 2 5 8 1 13 -3 5 -1 9 4 9 5 0 12 8 15 18 3 9 33 60 67 112
33 52 65 104 70 115 6 11 20 36 31 55 12 19 31 53 42 75 12 22 25 42 28 45 12
10 145 286 176 365 39 97 81 215 83 230 0 3 8 24 16 47 9 24 17 50 19 58 2 8
15 59 30 113 31 114 35 131 39 173 2 17 6 36 9 41 4 6 7 25 8 44 2 19 5 38 8
44 2 5 6 18 7 30 1 11 5 43 9 70 14 108 19 160 31 320 7 98 6 454 -1 550 -3
39 -7 97 -9 130 -5 71 -14 159 -20 206 -3 19 -8 54 -11 79 -3 25 -7 54 -9 65
-2 11 -7 43 -10 70 -9 62 -16 111 -22 139 -2 11 -7 37 -10 56 -3 19 -7 37 -9
40 -2 3 -6 24 -9 46 -4 22 -8 49 -11 59 -2 11 -14 61 -25 110 -22 98 -23 102
-45 190 -9 33 -17 67 -19 75 -2 8 -10 35 -17 60 -7 25 -13 48 -15 53 -1 4 -2
8 -4 10 -1 1 -3 11 -5 22 -6 30 -105 337 -116 357 -5 10 -9 24 -9 31 0 7 -9
32 -20 55 -11 22 -20 46 -20 52 0 5 -8 29 -19 53 -10 23 -24 58 -31 77 -7 19
-16 44 -21 55 -5 11 -29 70 -55 130 -54 130 -78 181 -152 335 -31 63 -56 117
-57 120 -4 16 -143 282 -197 375 -15 28 -34 62 -40 78 -7 15 -16 27 -20 27 -4
0 -8 6 -8 14 0 32 -23 26 -63 -16z m-411 -2019 c6 -5 13 -7 16 -4 2 3 17 -8
33 -25 23 -24 28 -39 31 -87 1 -32 -4 -87 -12 -123 -35 -165 -53 -305 -69
-515 -7 -102 -7 -367 0 -465 13 -167 14 -179 30 -295 4 -27 8 -57 10 -65 39
-208 35 -189 60 -290 9 -36 18 -72 20 -80 2 -8 10 -37 19 -64 8 -27 13 -53 10
-58 -3 -4 -1 -8 4 -8 5 0 9 -6 10 -12 1 -7 4 -34 8 -61 8 -61 0 -91 -34 -126
-25 -27 -66 -42 -120 -46 -42 -3 -111 54 -127 105 -1 3 -5 12 -8 20 -6 14 -43
133 -52 170 -21 83 -56 240 -69 300 -15 77 -20 105 -31 175 -3 22 -8 55 -11
73 -7 39 -13 90 -18 153 -2 26 -5 51 -8 55 -2 5 -4 30 -3 56 0 27 -2 48 -5 48
-3 0 -6 17 -6 38 -5 136 -5 201 0 232 7 47 12 84 20 151 4 31 8 65 10 76 3 11
7 44 10 74 3 30 8 63 10 75 2 12 7 45 11 74 4 29 8 62 11 73 2 11 6 41 9 66 3
25 7 61 10 79 3 17 7 47 10 65 15 100 42 149 95 171 35 15 104 12 126 -5z
m284 -2539 c30 -28 58 -50 63 -50 4 0 7 -7 7 -15 0 -8 4 -15 9 -15 6 0 22 -24
36 -52 15 -29 30 -55 33 -58 4 -3 21 -25 37 -50 16 -25 33 -48 38 -51 20 -15
45 -108 41 -154 -4 -50 -37 -110 -71 -130 -31 -18 -94 -18 -128 0 -56 31 -256
369 -246 418 1 4 3 16 4 26 2 11 8 25 14 33 6 7 12 18 14 23 12 30 75 125 84
125 5 -1 35 -23 65 -50z"/>
<path d="M3920 11600 c-15 -9 -14 -7 -24 -100 -4 -36 -9 -83 -12 -105 -36
-286 -45 -822 -19 -1140 12 -152 24 -272 30 -300 2 -11 7 -47 10 -80 4 -33 8
-67 10 -75 3 -8 7 -33 10 -55 4 -22 13 -76 21 -120 9 -44 17 -89 19 -100 4
-26 23 -113 31 -145 3 -14 7 -34 9 -45 2 -11 4 -22 6 -25 1 -3 3 -9 4 -15 2
-5 4 -12 5 -15 1 -3 3 -16 6 -30 2 -14 10 -45 18 -70 7 -25 21 -74 31 -110 9
-36 21 -74 25 -85 10 -23 19 -55 25 -85 2 -12 9 -28 16 -36 6 -8 9 -14 6 -14
-6 0 62 -197 89 -259 9 -20 20 -45 24 -56 45 -116 129 -301 200 -440 90 -177
103 -201 167 -306 21 -35 44 -77 52 -92 8 -15 18 -27 23 -27 4 0 8 -5 8 -10 0
-13 140 -224 152 -228 4 -2 8 -8 8 -14 0 -6 17 -32 38 -58 20 -26 46 -60 57
-76 19 -26 56 -73 80 -101 5 -6 21 -26 35 -45 14 -18 35 -43 48 -56 12 -13 22
-25 22 -28 0 -3 6 -11 13 -18 6 -7 46 -51 87 -97 98 -110 355 -367 450 -449
41 -35 77 -67 80 -70 3 -3 30 -25 60 -50 30 -25 57 -47 60 -50 3 -3 21 -17 40
-31 19 -15 49 -39 65 -53 17 -14 33 -26 37 -26 4 0 13 -6 20 -13 25 -25 135
-103 288 -204 85 -57 160 -107 167 -113 7 -5 16 -10 21 -10 5 0 20 -8 33 -18
13 -11 49 -32 79 -49 30 -17 77 -43 103 -58 26 -15 51 -25 54 -21 4 3 1 6 -5
6 -7 0 -12 6 -12 13 0 8 -9 22 -20 32 -11 10 -20 24 -20 31 0 7 -4 14 -8 16
-5 2 -33 39 -62 83 -30 44 -62 89 -72 99 -10 11 -18 25 -18 32 0 7 -3 14 -8
16 -11 5 -172 245 -172 257 0 6 -4 11 -10 11 -5 0 -10 5 -10 11 0 6 -8 23 -19
37 -10 15 -28 43 -39 63 -43 77 -47 84 -52 89 -3 3 -11 16 -17 30 -7 14 -35
66 -62 115 -61 110 -171 333 -171 345 0 6 -4 10 -10 10 -5 0 -10 11 -10 24 0
13 -3 26 -8 28 -9 4 -63 130 -60 138 2 3 -4 17 -13 30 -9 14 -22 43 -29 65 -7
22 -16 44 -21 50 -5 5 -9 19 -9 31 0 13 -4 25 -9 28 -4 3 -16 31 -26 63 -10
32 -22 69 -28 83 -6 14 -11 30 -12 35 0 6 -4 17 -7 25 -7 16 -51 159 -54 175
-1 6 -14 56 -29 113 -14 56 -28 112 -31 125 -2 12 -6 33 -10 47 -7 32 -16 90
-17 113 -1 9 -4 17 -7 17 -3 0 -7 19 -9 42 -1 23 -4 45 -7 50 -3 5 -7 23 -9
41 -2 18 -6 57 -10 87 -12 101 -14 115 -22 195 -10 99 -9 631 1 740 4 44 9 98
11 120 2 22 4 40 5 40 8 0 3 62 -5 67 -6 5 -5 8 3 8 7 0 11 3 8 8 -2 4 -7 26
-10 48 -11 74 -45 190 -87 299 -13 33 -24 62 -24 65 -1 3 -9 22 -18 44 -9 21
-17 41 -17 43 0 6 -111 227 -140 278 -46 83 -157 243 -235 340 -85 107 -312
336 -418 423 -140 114 -429 312 -455 312 -7 0 -12 3 -12 8 0 4 -26 21 -58 37
-31 17 -59 32 -62 35 -12 12 -110 60 -110 54 0 -3 -6 -2 -13 4 -7 7 -18 7 -27
2z"/>
<path d="M9953 11545 c-51 -34 -99 -65 -107 -68 -9 -4 -16 -11 -16 -17 0 -5
-5 -10 -10 -10 -15 0 -317 -220 -375 -272 -16 -16 -33 -28 -37 -28 -7 0 -31
-21 -158 -139 -30 -28 -58 -51 -62 -51 -5 0 -8 -7 -8 -15 0 -8 -4 -15 -9 -15
-11 0 -102 -91 -172 -171 -24 -28 -55 -63 -69 -77 -14 -15 -39 -45 -55 -67
-17 -22 -38 -49 -48 -60 -10 -11 -26 -32 -35 -47 -9 -16 -20 -28 -24 -28 -4 0
-8 -7 -8 -15 0 -8 -4 -15 -10 -15 -5 0 -10 -6 -10 -14 0 -8 -3 -16 -7 -18 -11
-4 -63 -85 -63 -97 0 -5 -4 -11 -8 -13 -8 -3 -33 -45 -98 -167 -13 -24 -24
-50 -24 -57 0 -8 -4 -14 -10 -14 -5 0 -10 -8 -10 -18 0 -10 -3 -22 -7 -26 -5
-4 -8 -11 -9 -14 0 -4 -8 -25 -18 -47 -22 -49 -73 -200 -81 -241 -8 -39 -13
-59 -15 -59 -2 0 -9 -33 -14 -70 -3 -16 -5 -30 -6 -30 -1 0 -4 -11 -5 -25 -2
-14 -6 -38 -9 -55 -26 -154 -26 -491 -1 -653 11 -74 21 -163 31 -302 13 -165
6 -605 -11 -690 -2 -14 -6 -47 -7 -73 -2 -26 -7 -47 -11 -47 -5 0 -5 -4 -2
-10 3 -5 1 -37 -5 -70 -6 -34 -13 -73 -15 -88 -3 -24 -42 -211 -49 -237 -2 -5
-5 -17 -8 -25 -3 -8 -16 -55 -29 -105 -12 -49 -27 -96 -33 -104 -6 -8 -10 -16
-8 -18 3 -4 -17 -80 -29 -108 -5 -11 -22 -58 -39 -105 -17 -46 -35 -90 -41
-96 -5 -7 -9 -16 -8 -20 1 -5 -7 -30 -19 -57 -12 -26 -22 -49 -22 -52 -2 -14
-152 -307 -208 -405 -63 -112 -263 -422 -289 -448 -8 -8 -20 -27 -29 -43 l-15
-29 33 6 c18 3 39 7 46 7 6 0 12 4 12 9 0 5 5 6 10 3 9 -6 197 80 210 95 3 3
27 19 54 34 60 35 260 174 321 224 6 4 44 35 85 68 95 76 119 95 142 116 10
10 20 18 22 18 3 0 17 12 33 28 16 15 64 59 108 97 81 72 415 400 415 408 0 3
21 28 48 56 85 91 221 264 292 371 8 12 21 28 28 36 6 7 12 15 12 17 0 3 36
61 80 130 44 69 80 130 80 136 0 6 4 11 9 11 5 0 11 8 14 18 3 9 22 44 41 77
42 72 176 341 176 354 0 5 5 11 10 13 6 2 12 13 13 26 0 12 5 22 10 22 4 0 5
5 2 10 -3 6 -1 10 4 10 6 0 11 7 11 15 0 8 13 45 29 82 36 82 128 334 136 373
6 26 28 100 36 120 5 14 11 34 13 45 2 11 9 40 16 65 7 25 14 53 16 63 2 10 5
26 8 35 3 9 8 32 11 51 3 19 8 38 10 42 3 4 7 22 10 40 5 39 13 74 15 74 1 0
3 9 5 20 14 97 18 123 21 140 3 11 7 38 10 60 2 22 6 54 9 70 4 29 13 105 20
175 15 136 18 233 19 520 1 294 -3 427 -18 575 -3 28 -8 77 -11 110 -3 33 -8
76 -10 95 -3 19 -8 53 -10 75 -8 73 -14 109 -29 205 -20 119 -25 149 -31 180
-8 38 -16 83 -20 105 -13 76 -28 152 -34 161 -4 7 -41 -13 -98 -51z"/>
<path d="M12369 10445 c-3 -3 -30 -7 -60 -10 -131 -13 -213 -26 -309 -50 -97
-25 -177 -47 -235 -66 -38 -12 -73 -22 -77 -21 -5 1 -8 -3 -8 -9 0 -5 -4 -8
-9 -4 -5 3 -13 0 -16 -6 -4 -5 -13 -8 -21 -5 -8 3 -14 1 -14 -4 0 -6 -6 -10
-12 -10 -7 0 -58 -21 -113 -46 -55 -25 -104 -46 -110 -48 -5 -1 -16 -6 -24
-10 -8 -5 -42 -24 -76 -41 -110 -58 -147 -79 -335 -195 -30 -19 -59 -38 -65
-43 -5 -4 -59 -42 -120 -84 -123 -85 -213 -170 -246 -234 -22 -44 -62 -216
-53 -231 3 -4 0 -8 -6 -8 -6 0 -8 -4 -5 -10 5 -7 -27 -219 -49 -326 -16 -77
-47 -214 -55 -241 -5 -18 -8 -33 -6 -33 2 0 -3 -16 -11 -35 -8 -20 -12 -40 -9
-45 4 -6 1 -10 -6 -10 -7 0 -10 -3 -7 -6 4 -3 0 -24 -7 -47 -7 -23 -30 -94
-50 -157 -20 -63 -40 -124 -45 -135 -5 -11 -18 -47 -30 -80 -11 -33 -25 -69
-30 -80 -5 -11 -28 -65 -51 -120 -23 -55 -46 -109 -52 -120 -6 -11 -10 -23 -9
-27 1 -5 -3 -8 -10 -8 -6 0 -9 -3 -5 -6 10 -10 -138 -289 -250 -474 -36 -58
-70 -114 -76 -125 -7 -11 -24 -36 -39 -56 -16 -20 -28 -40 -28 -43 0 -4 -22
-37 -50 -74 -27 -37 -68 -93 -92 -126 -24 -32 -50 -66 -58 -76 -8 -10 -26 -32
-40 -50 -14 -17 -35 -43 -47 -58 -13 -15 -31 -36 -40 -48 -107 -127 -374 -402
-492 -504 -28 -25 -68 -60 -89 -78 -20 -18 -46 -41 -57 -51 -33 -29 -248 -196
-285 -221 -19 -14 -40 -29 -46 -35 -7 -6 -45 -34 -85 -61 -41 -27 -82 -57 -93
-66 -11 -10 -25 -18 -32 -18 -7 0 -14 -4 -16 -9 -1 -5 -18 -18 -37 -29 -32
-19 -32 -20 -11 -27 22 -7 118 2 158 15 4 1 10 2 13 2 4 -1 22 3 40 9 36 10
162 37 207 44 15 3 65 14 112 25 47 11 96 22 110 24 14 2 86 18 160 36 74 17
144 33 155 35 11 2 34 8 50 15 17 6 31 11 33 10 1 0 19 4 39 9 20 6 39 8 42 6
2 -3 9 -1 15 4 9 7 100 36 141 45 6 2 37 11 70 21 33 11 62 20 65 20 3 1 12 4
20 8 14 5 119 40 130 42 3 1 12 4 20 7 8 4 85 32 170 63 85 32 160 61 165 65
6 4 37 17 70 30 33 13 112 48 175 78 63 30 121 56 128 58 8 1 21 8 30 16 10 7
44 27 77 43 33 17 63 35 67 40 4 6 8 7 8 3 0 -6 278 158 290 171 6 8 41 29 60
38 8 4 21 13 28 20 8 7 35 27 60 45 26 17 76 54 112 82 36 28 70 54 75 59 140
108 410 371 536 522 132 157 323 427 312 439 -4 3 -1 6 5 6 7 0 12 4 12 9 0 5
15 33 33 64 55 95 71 122 73 130 1 4 3 9 4 12 1 3 3 10 4 15 0 6 8 15 16 20 8
5 12 10 7 10 -4 0 3 21 17 48 38 76 91 210 126 317 17 55 34 107 37 115 3 8 7
20 8 25 2 6 15 56 30 113 15 57 24 106 21 109 -3 3 -2 11 4 17 9 12 14 32 25
111 4 22 8 47 10 55 2 8 7 40 11 70 3 30 8 69 10 85 9 82 17 210 18 292 1 51
4 93 8 93 4 0 4 10 0 23 -9 28 -8 58 1 75 5 6 4 12 0 12 -12 0 -10 64 2 72 7
5 7 8 0 8 -6 0 -11 36 -13 83 -4 117 -9 173 -16 185 -3 6 -2 13 4 17 6 4 7 12
3 18 -4 7 -8 23 -9 37 -1 14 -5 45 -8 70 -3 25 -9 70 -12 100 -7 57 -11 85
-14 85 -1 0 -3 16 -6 35 -14 113 -31 170 -45 155z"/>
<path d="M1584 10405 c-7 -18 -16 -81 -20 -141 -8 -130 -13 -555 -6 -568 3 -5
6 -39 8 -75 1 -36 5 -93 9 -126 3 -33 7 -76 9 -96 2 -20 7 -50 10 -65 3 -16 8
-45 11 -64 15 -94 28 -162 46 -235 10 -44 21 -89 23 -100 2 -11 9 -33 15 -49
7 -16 9 -31 6 -34 -2 -3 0 -10 5 -17 5 -6 11 -20 13 -31 1 -10 5 -23 8 -29 4
-5 9 -23 13 -40 10 -38 71 -207 97 -262 10 -24 19 -45 19 -48 0 -9 143 -299
150 -305 4 -3 22 -34 41 -70 18 -36 36 -67 39 -70 10 -9 90 -130 90 -136 0 -3
6 -12 13 -19 27 -31 37 -44 37 -50 0 -4 20 -32 45 -63 25 -31 58 -72 73 -91
40 -51 132 -160 156 -185 174 -184 295 -299 429 -409 21 -18 51 -42 65 -55 15
-12 32 -26 37 -30 6 -4 40 -31 76 -60 37 -28 70 -52 73 -52 4 0 14 -6 22 -12
34 -29 41 -34 84 -63 25 -16 47 -32 50 -35 3 -3 17 -11 33 -19 15 -8 27 -18
27 -23 0 -4 4 -8 9 -8 6 0 54 -28 108 -61 54 -34 107 -65 118 -70 29 -13 59
-32 67 -44 4 -5 8 -7 8 -3 0 4 22 -5 48 -21 47 -28 337 -171 346 -171 3 0 35
-14 72 -31 74 -34 330 -138 354 -144 8 -2 29 -9 45 -16 17 -7 32 -13 35 -14 3
0 57 -18 120 -40 63 -22 117 -40 120 -40 3 -1 39 -12 80 -25 41 -13 80 -25 85
-26 6 -2 42 -12 80 -24 39 -12 78 -23 88 -26 19 -5 55 -13 77 -19 8 -2 15 -4
15 -5 0 -1 7 -3 15 -5 8 -2 30 -8 48 -14 17 -5 32 -7 32 -4 0 3 6 0 13 -6 8
-6 17 -8 20 -5 3 3 12 2 19 -2 7 -4 21 -9 30 -11 43 -7 63 -11 63 -13 0 -2 9
-4 20 -6 65 -10 91 -17 103 -26 7 -6 15 -8 18 -6 3 3 22 2 42 -3 42 -11 68
-17 97 -23 11 -2 76 -16 145 -31 69 -14 134 -28 145 -31 11 -2 31 -6 45 -10
55 -12 65 -10 67 16 2 22 -19 41 -163 145 -147 106 -244 180 -309 233 -80 66
-142 118 -152 127 -6 5 -35 30 -64 55 -75 63 -431 419 -509 509 -36 41 -82 92
-102 115 -21 23 -38 44 -38 49 0 4 -8 15 -18 25 -52 55 -211 267 -301 402 -22
32 -77 117 -88 135 -124 204 -172 288 -230 405 -16 30 -32 58 -36 61 -5 3 -8
8 -7 10 1 2 -22 54 -50 114 -29 61 -60 130 -70 155 -10 25 -26 63 -36 85 -10
22 -18 42 -19 45 -1 3 -5 14 -10 25 -37 91 -96 250 -98 263 -1 9 -5 22 -9 27
-5 9 -69 206 -74 230 -1 6 -18 69 -37 140 -19 72 -39 144 -43 160 -4 17 -8 32
-9 35 -2 8 -25 114 -29 136 -12 60 -88 174 -117 174 -4 0 -28 14 -52 30 -25
17 -50 30 -56 30 -6 0 -11 5 -11 10 0 6 -7 10 -15 10 -8 0 -15 4 -15 9 0 5 -8
11 -17 15 -10 3 -30 14 -45 23 -101 65 -404 247 -508 305 -41 23 -77 45 -80
48 -3 4 -15 10 -27 14 -13 4 -23 12 -23 17 0 5 -6 9 -13 9 -8 0 -67 29 -132
65 -64 36 -124 65 -131 65 -8 0 -14 4 -14 9 0 4 -26 18 -57 31 -137 54 -161
62 -208 76 -27 8 -57 18 -65 21 -20 8 -16 7 -85 23 -33 8 -62 14 -65 15 -3 1
-27 5 -55 10 -27 4 -59 9 -70 12 -18 3 -61 7 -184 17 -40 3 -44 1 -57 -29z"/>
<path d="M12188 7054 c-2 -1 -28 -5 -58 -9 -30 -3 -64 -8 -75 -11 -11 -2 -37
-6 -57 -8 -21 -3 -41 -7 -46 -10 -5 -3 -22 -7 -38 -10 -52 -9 -128 -53 -184
-106 -123 -116 -158 -148 -223 -203 -37 -31 -72 -57 -78 -57 -5 0 -7 -4 -4
-10 3 -5 3 -10 -2 -10 -4 0 -20 -10 -35 -23 -15 -12 -46 -35 -68 -51 -22 -17
-40 -34 -40 -39 0 -4 -5 -5 -10 -2 -6 3 -13 -1 -16 -9 -3 -9 -10 -16 -15 -16
-6 0 -15 -5 -22 -10 -7 -6 -37 -29 -67 -51 -30 -21 -59 -43 -65 -47 -5 -4 -68
-45 -140 -90 -71 -45 -136 -86 -142 -92 -7 -6 -13 -8 -13 -4 0 4 -11 -3 -25
-16 -14 -13 -25 -20 -25 -15 0 4 -8 2 -17 -6 -10 -8 -28 -20 -40 -26 -56 -32
-186 -99 -262 -137 l-83 -42 92 -84 c51 -47 113 -105 139 -130 26 -25 91 -85
145 -135 54 -49 112 -103 130 -120 50 -47 234 -216 276 -255 66 -61 81 -71
121 -85 21 -8 39 -12 39 -10 0 3 12 0 27 -6 15 -6 62 -17 103 -25 41 -8 86
-16 99 -19 25 -5 114 -14 191 -21 61 -5 293 -4 355 1 67 6 140 14 140 15 0 2
15 4 82 14 82 12 304 71 344 91 15 8 29 12 31 9 3 -2 18 2 34 11 16 8 32 15
36 15 7 0 52 20 178 78 19 9 38 21 42 26 4 6 8 8 8 4 0 -4 34 13 76 37 42 25
80 45 85 45 5 0 9 5 9 10 0 6 5 10 10 10 6 0 16 5 23 10 7 6 48 36 92 67 44
32 85 62 91 68 6 5 32 28 59 50 62 52 199 189 250 250 22 26 48 56 57 66 25
26 178 249 172 249 -3 0 9 18 26 40 17 22 29 40 26 40 -3 0 12 34 35 76 23 41
39 77 38 78 -59 45 -161 116 -168 116 -5 0 -11 4 -13 8 -11 28 -407 248 -573
319 -95 41 -210 83 -226 83 -9 0 -19 3 -23 8 -4 4 -11 7 -14 8 -4 0 -27 6 -52
14 -25 7 -54 15 -65 17 -11 2 -31 7 -45 12 -29 10 -139 33 -179 37 -14 1 -26
3 -26 4 0 8 -419 22 -427 14z"/>
<path d="M1645 7012 c-2 -2 -32 -5 -67 -7 -34 -2 -85 -6 -113 -10 -27 -3 -68
-8 -90 -11 -22 -3 -47 -7 -55 -9 -8 -2 -33 -7 -55 -10 -22 -4 -44 -8 -50 -9
-5 -2 -28 -6 -50 -11 -22 -4 -80 -18 -130 -32 -111 -30 -107 -29 -125 -36 -18
-7 -161 -57 -175 -61 -24 -7 -116 -47 -215 -94 -141 -66 -375 -208 -472 -285
l-37 -30 36 -66 c20 -36 41 -67 45 -69 4 -2 8 -9 8 -15 0 -18 130 -210 185
-274 6 -6 26 -31 45 -54 19 -24 48 -57 64 -74 15 -16 33 -37 40 -45 18 -23
155 -150 210 -195 27 -22 55 -46 62 -52 7 -7 17 -13 23 -13 6 0 11 -3 11 -7 0
-5 25 -24 55 -43 30 -19 55 -38 55 -42 0 -5 5 -8 11 -8 6 0 29 -13 52 -29 56
-38 193 -110 295 -155 71 -31 261 -101 285 -105 4 0 8 -1 10 -2 13 -4 140 -35
175 -43 59 -13 220 -37 292 -43 144 -11 448 -5 540 11 14 3 45 7 70 10 46 7
91 17 148 35 18 5 35 10 37 10 3 0 19 8 35 16 17 9 30 12 30 8 0 -5 4 -3 8 2
4 6 24 19 45 30 20 11 37 23 37 27 0 5 6 8 13 8 15 0 84 71 142 145 22 28 49
57 60 66 11 9 36 31 55 48 19 17 38 31 41 31 3 0 15 8 26 18 11 9 35 28 53 42
18 14 61 46 94 72 34 27 66 51 71 56 6 4 39 30 75 57 36 28 70 55 76 60 7 6
24 19 40 30 15 11 39 29 53 41 14 11 65 51 114 87 l87 67 -147 72 c-82 40
-149 76 -151 81 -2 4 -8 7 -14 7 -5 0 -47 22 -91 48 -45 26 -89 51 -97 55 -8
4 -28 16 -45 27 -16 11 -37 23 -45 27 -21 9 -74 46 -81 56 -3 5 -8 8 -10 6 -6
-3 -132 80 -140 92 -3 6 -10 11 -15 11 -5 0 -51 31 -102 69 -51 38 -95 69 -98
69 -2 0 -13 8 -23 18 -11 9 -26 22 -33 27 -7 6 -33 26 -58 45 -24 19 -56 45
-70 58 -47 43 -90 64 -192 93 -56 16 -113 32 -127 35 -37 7 -56 12 -56 14 0 1
-13 3 -30 5 -16 2 -46 7 -65 11 -47 9 -87 14 -135 19 -22 2 -40 4 -40 5 0 8
-403 19 -410 12z"/>
<path d="M4285 5858 c-47 -10 -186 -79 -290 -145 -11 -7 -33 -20 -50 -29 -16
-10 -65 -41 -108 -71 -43 -29 -82 -53 -88 -53 -5 0 -9 -4 -9 -8 0 -4 -33 -32
-74 -61 -41 -29 -84 -63 -97 -77 -12 -13 -26 -24 -30 -24 -5 0 -19 -10 -32
-22 -13 -13 -48 -45 -78 -72 -86 -77 -228 -218 -304 -302 -38 -43 -80 -88 -92
-101 -13 -13 -23 -27 -23 -30 0 -3 -15 -22 -32 -42 -39 -44 -58 -68 -144 -186
-36 -49 -72 -98 -79 -107 -8 -10 -12 -18 -9 -18 3 0 -6 -15 -19 -32 -108 -146
-377 -681 -377 -750 0 -10 -4 -18 -8 -18 -4 0 -13 -19 -19 -42 -7 -24 -14 -50
-18 -59 -6 -16 1 -19 105 -35 8 -2 26 -5 40 -8 27 -6 59 -13 103 -21 15 -3 38
-7 52 -10 14 -3 36 -7 50 -10 14 -3 37 -7 53 -10 15 -3 41 -8 57 -12 17 -4 39
-8 50 -9 11 -1 74 -11 140 -22 66 -12 145 -24 175 -27 30 -3 69 -8 85 -10 189
-23 704 -23 820 1 17 4 37 6 45 6 14 0 118 14 170 23 129 23 387 91 455 120
17 7 41 16 55 20 27 7 202 81 235 98 11 6 22 12 25 12 21 4 297 161 318 181 6
7 21 16 32 19 11 3 20 10 20 15 0 5 8 11 18 14 10 4 27 14 38 24 10 9 44 35
74 57 30 22 71 53 90 70 71 61 257 252 302 310 26 33 53 67 61 76 31 36 110
163 161 261 49 96 125 260 130 283 2 6 15 36 29 69 15 32 27 61 27 63 0 3 14
34 30 70 17 35 30 70 30 78 0 7 4 15 10 17 17 5 -4 27 -33 32 -15 3 -39 9 -54
12 -16 3 -41 7 -58 9 -16 1 -30 4 -30 5 0 1 -9 3 -20 4 -81 11 -125 18 -160
27 -22 5 -56 11 -75 14 -19 2 -44 6 -55 9 -22 5 -218 45 -250 52 -11 2 -31 7
-45 10 -14 3 -32 7 -40 8 -8 1 -24 5 -35 9 -11 3 -31 9 -45 11 -14 3 -45 10
-70 17 -53 13 -73 17 -99 23 -10 3 -70 19 -132 36 -63 18 -121 33 -129 35 -8
2 -46 14 -85 25 -38 12 -81 24 -94 27 -13 3 -114 37 -225 75 -111 38 -208 70
-216 72 -8 3 -16 5 -17 6 -2 2 -7 4 -13 5 -5 1 -11 3 -12 5 -3 2 -23 7 -53 13
-11 2 -38 0 -60 -5z"/>
<path d="M9825 5728 c-35 -10 -58 -17 -125 -33 -8 -2 -15 -4 -15 -5 0 -2 -12
-5 -50 -13 -11 -3 -87 -24 -170 -47 -82 -22 -161 -43 -174 -46 -13 -3 -32 -9
-43 -15 -10 -5 -18 -7 -18 -5 0 3 -19 -1 -42 -10 -22 -8 -43 -12 -46 -9 -3 3
-10 0 -17 -5 -6 -5 -22 -12 -36 -14 -13 -3 -24 -5 -24 -6 0 -1 -9 -3 -20 -5
-11 -2 -83 -22 -160 -44 -145 -41 -335 -91 -357 -95 -7 -1 -22 -7 -33 -12 -11
-6 -30 -9 -42 -8 -13 0 -23 -2 -23 -5 0 -4 -8 -7 -17 -8 -29 -1 -97 -15 -107
-21 -5 -3 -23 -6 -40 -8 -17 -1 -69 -9 -116 -18 -47 -9 -114 -21 -150 -27 -92
-15 -95 -16 -80 -34 7 -8 10 -15 7 -15 -7 0 46 -156 75 -220 11 -25 27 -61 35
-80 8 -19 19 -43 23 -52 62 -118 99 -182 131 -230 22 -31 39 -61 39 -67 0 -5
3 -11 8 -13 4 -1 27 -30 52 -63 24 -33 53 -71 64 -85 39 -48 271 -276 311
-306 43 -32 80 -62 101 -82 8 -7 14 -11 14 -7 0 4 7 0 15 -7 8 -7 20 -18 27
-23 19 -15 108 -75 112 -75 2 0 43 -24 92 -53 97 -58 245 -132 257 -129 4 1 7
-2 7 -8 0 -5 8 -10 18 -10 10 0 22 -4 27 -8 21 -19 289 -119 342 -128 15 -3
31 -11 35 -17 4 -7 8 -9 8 -5 0 3 26 -1 58 -9 31 -8 65 -17 75 -19 9 -2 27 -7
40 -10 31 -8 234 -43 282 -49 206 -25 615 -25 780 0 17 2 56 6 87 9 32 2 61 7
66 10 5 3 29 8 53 10 24 3 53 7 64 10 11 2 40 7 65 11 58 9 131 25 285 61 11
3 29 7 40 9 65 15 80 23 78 41 -5 45 -10 61 -26 93 -9 19 -17 39 -17 46 0 6
-9 30 -20 53 -11 22 -20 47 -20 55 0 7 -5 18 -12 25 -6 6 -13 17 -14 24 -1 7
-27 66 -58 131 -30 64 -56 121 -58 125 -1 4 -13 27 -28 52 -14 25 -33 60 -41
78 -7 17 -17 32 -21 32 -5 0 -8 4 -8 10 0 5 -23 49 -52 97 -43 75 -76 126
-171 266 -17 26 -100 135 -169 222 -67 84 -309 332 -387 395 -23 19 -53 44
-64 54 -88 77 -322 236 -452 307 -71 39 -87 44 -150 45 -38 1 -83 -3 -100 -8z"/>
<path d="M7026 5489 c-71 -26 -123 -63 -202 -143 -71 -72 -184 -216 -184 -235
0 -6 -4 -11 -10 -11 -5 0 -10 -7 -10 -15 0 -8 -3 -15 -7 -15 -5 0 -13 -10 -19
-23 -6 -12 -35 -70 -65 -128 -60 -116 -65 -128 -108 -244 -50 -136 -108 -361
-97 -372 3 -3 1 -13 -4 -23 -16 -30 -25 -161 -24 -350 1 -188 6 -247 29 -392
5 -29 49 -205 69 -278 12 -43 71 -202 93 -250 54 -118 87 -185 95 -188 4 -2 8
-12 8 -23 0 -10 4 -19 9 -19 5 0 15 -16 22 -35 7 -19 17 -35 21 -35 4 0 8 -4
8 -9 0 -12 76 -128 103 -158 11 -13 17 -23 13 -23 -4 0 -1 -7 6 -15 7 -8 18
-20 23 -27 71 -90 142 -176 156 -190 10 -10 23 -25 31 -35 8 -10 30 -33 50
-52 41 -38 35 -39 123 34 63 53 230 219 280 279 22 26 48 58 59 70 10 11 32
41 49 66 17 25 34 47 39 48 4 2 8 7 8 12 0 5 18 36 41 70 51 78 119 210 157
308 34 86 45 115 47 122 2 6 28 93 30 100 4 15 16 76 16 85 1 6 4 15 9 20 4 6
7 22 6 38 -1 15 2 27 6 27 4 0 7 8 7 18 -1 9 2 35 5 57 26 184 27 452 1 643
-14 109 -24 172 -30 192 -2 8 -7 30 -10 47 -8 50 -32 150 -54 226 -11 37 -18
67 -15 67 2 0 -2 10 -10 23 -8 12 -17 36 -21 54 -3 18 -15 50 -26 72 -10 22
-19 47 -19 56 0 8 -4 15 -10 15 -5 0 -9 3 -8 8 3 11 -57 127 -103 202 -99 158
-199 263 -296 311 -60 29 -79 34 -153 35 -61 1 -99 -3 -134 -17z"/>
</g>
</svg>
