<?xml version="1.0" standalone="no"?>
<!DOCTYPE svg PUBLIC "-//W3C//DTD SVG 20010904//EN"
 "http://www.w3.org/TR/2001/REC-SVG-20010904/DTD/svg10.dtd">
<svg version="1.0" xmlns="http://www.w3.org/2000/svg"
 width="768.000000pt" height="768.000000pt" viewBox="0 0 768.000000 768.000000"
 preserveAspectRatio="xMidYMid meet">
<metadata>
Created by potrace 1.14, written by Peter Selinger 2001-2017
</metadata>
<g transform="translate(0.000000,768.000000) scale(0.100000,-0.100000)"
fill="#000000" stroke="none">
<path d="M3770 7588 c-65 -92 -216 -344 -244 -405 -17 -37 -26 -41 -44 -15
-99 137 -184 257 -192 271 -8 14 -13 12 -38 -14 -34 -36 -66 -85 -147 -220
-20 -33 -46 -76 -58 -96 -12 -20 -57 -96 -100 -170 -92 -158 -107 -179 -114
-161 -3 7 -20 31 -39 55 -19 23 -42 52 -52 64 -9 12 -20 22 -23 23 -3 0 -20
-20 -38 -45 -17 -24 -37 -50 -44 -57 -7 -7 -22 -28 -32 -45 -11 -18 -23 -33
-27 -33 -4 0 -8 -4 -8 -9 0 -4 -23 -42 -50 -84 -105 -160 -242 -459 -275 -603
-2 -10 -13 -53 -24 -94 -23 -87 -29 -117 -37 -185 -3 -27 -7 -52 -9 -55 -4 -6
-17 -169 -20 -255 -3 -62 -2 -60 -21 -44 -9 7 -24 18 -34 24 -234 135 -342
191 -423 216 -15 5 -41 13 -57 18 l-31 10 6 -182 c11 -344 13 -392 19 -497 4
-58 9 -123 11 -145 3 -22 7 -61 10 -87 5 -52 14 -112 20 -143 5 -22 23 -97 26
-105 1 -3 3 -9 4 -15 43 -187 154 -404 271 -533 77 -85 229 -169 334 -185 42
-7 81 -48 129 -138 78 -148 183 -256 309 -321 36 -18 70 -34 74 -34 4 -1 9 -2
11 -4 1 -1 9 -3 17 -6 149 -40 308 -15 433 70 69 46 76 46 120 2 93 -93 131
-200 130 -361 -4 -359 -5 -435 -9 -435 -3 0 -26 19 -51 43 -25 23 -51 47 -57
52 -77 71 -314 241 -411 295 -201 113 -457 221 -605 255 -8 2 -46 11 -85 20
-38 9 -80 19 -92 21 -13 2 -35 6 -50 9 -96 18 -90 19 -97 -22 -12 -67 -14 -70
-49 -67 -17 2 -65 5 -106 8 -40 3 -75 7 -77 9 -2 2 -5 28 -7 57 l-2 54 -578 0
c-317 1 -577 -2 -577 -5 0 -12 205 -225 336 -349 59 -56 247 -218 295 -253
122 -92 267 -182 394 -246 179 -91 195 -97 455 -179 24 -8 172 -40 220 -48 14
-2 41 -7 60 -11 43 -8 58 -10 135 -17 33 -3 80 -8 105 -11 82 -9 312 -17 580
-18 l265 -2 2 -1060 c1 -583 2 -1068 3 -1077 0 -17 23 -18 343 -18 l342 0 -1
228 c-1 125 -2 230 -3 233 0 3 -16 6 -33 6 -18 0 -44 1 -58 2 l-25 1 0 105 c1
57 3 107 6 110 3 3 25 6 48 7 23 1 44 6 48 11 10 16 8 198 -2 206 -5 4 -28 9
-50 10 -22 2 -42 5 -45 7 -2 3 -4 52 -5 109 l0 105 35 1 c19 1 40 2 45 4 6 1
15 3 21 3 8 2 11 141 11 502 0 276 3 503 6 506 3 3 167 7 364 9 399 4 522 10
673 31 19 3 51 7 70 9 19 3 58 9 85 15 28 6 64 13 80 16 17 3 53 11 80 19 28
8 53 14 57 15 4 0 27 8 50 16 24 9 50 17 59 19 30 6 224 89 277 117 28 16 52
25 52 21 0 -4 4 -3 8 2 4 6 55 39 114 74 133 80 290 195 428 315 153 132 450
433 450 456 0 8 -1195 5 -1260 -3 -19 -3 -62 -8 -95 -11 -69 -8 -112 -15 -185
-31 -14 -3 -38 -8 -54 -10 -15 -2 -36 -7 -46 -10 -10 -3 -28 -8 -39 -10 -85
-19 -196 -56 -346 -115 -16 -6 -31 -11 -32 -11 -1 0 -59 -29 -127 -64 -123
-63 -288 -162 -294 -177 -2 -5 -10 -8 -18 -8 -8 0 -14 -4 -14 -10 0 -5 -4 -10
-10 -10 -5 0 -20 -9 -32 -19 -13 -10 -57 -46 -98 -79 -41 -34 -95 -79 -119
-101 -24 -23 -47 -41 -51 -41 -5 0 -10 -6 -13 -12 -2 -7 -8 -10 -12 -6 -9 9
-8 604 2 633 5 18 38 63 99 135 12 14 33 38 46 54 l24 28 49 -33 c28 -18 52
-36 55 -39 8 -11 141 -62 175 -68 175 -31 361 36 505 179 79 79 94 99 146 191
60 105 87 148 92 143 15 -15 231 91 287 140 17 15 35 30 40 33 36 23 142 166
188 252 50 95 133 328 151 426 2 16 7 40 10 54 35 155 50 343 50 620 0 258 -5
380 -15 380 -7 0 -69 -32 -486 -251 l-71 -37 1 46 c1 52 -12 238 -18 274 -3
13 -7 34 -10 48 -2 14 -7 41 -10 60 -12 70 -50 210 -79 292 -25 69 -32 72
-103 50 l-31 -10 -41 95 c-23 52 -41 98 -41 103 0 5 15 16 33 25 17 9 41 22
51 30 20 15 20 15 0 42 -11 16 -31 47 -44 71 -13 23 -27 42 -32 42 -4 0 -8 4
-8 9 0 9 -51 90 -187 299 -31 47 -53 65 -53 44 0 -5 -8 -18 -17 -29 -10 -11
-29 -35 -43 -54 -14 -18 -37 -46 -51 -62 l-25 -30 -21 49 c-11 27 -20 51 -20
54 -3 27 -228 430 -252 450 -3 3 -25 30 -49 61 -23 31 -51 64 -61 73 -19 17
-21 16 -48 -26 -15 -23 -48 -70 -73 -103 -25 -33 -58 -79 -74 -102 -28 -42
-46 -54 -46 -32 0 12 -61 102 -72 107 -5 2 -8 8 -8 12 0 5 -27 48 -60 95 -33
47 -60 89 -60 94 0 4 -9 16 -20 26 -11 10 -20 24 -20 32 0 7 -4 13 -10 13 -5
0 -10 7 -10 15 0 8 -4 15 -10 15 -5 0 -10 6 -10 14 0 8 -4 16 -8 18 -4 2 -18
18 -31 36 -12 17 -26 32 -30 32 -4 0 -36 -42 -71 -92z"/>
</g>
</svg>
