<?xml version="1.0" encoding="UTF-8"?><svg id="a" xmlns="http://www.w3.org/2000/svg" viewBox="0 0 319.56 384"><defs><style>.b{fill:#030504;}.c{fill:#030202;}.d{fill:#060907;}.e{fill:#687b09;}.f{fill:#fdfafb;}.g{fill:#fcf8f9;}.h{fill:#939b0f;}.i{fill:#bb0a10;}.j{fill:#bb1c41;}.k{fill:#cf5572;}.l{fill:#cf5472;}.m{fill:#ce5370;}.n{fill:#cb5270;}.o{fill:#cb516f;}.p{fill:#5da2ab;}</style></defs><path class="c" d="M69.54,225.83l1.13-5.37c27.72,4.15,51.52,16.05,72.3,35.99,0-5.43,0-10.09,0-14.76,0-.37-.03-.75,0-1.12,.87-9.99,.62-19.65-8.93-26.6,.62-.18,.19-.18-.06,.03-12.94,11-29.71,8.26-40.88-5.25-2.9-3.5-4.79-7.82-7.3-11.67-.64-.98-1.79-2.08-2.86-2.27-11.23-1.94-18.75-8.68-24.14-18.29-6.03-10.75-8.93-22.54-9.99-34.61-1.2-13.65-1.29-27.39-1.9-41.87,10.93,3.11,19.4,8.38,28.38,14.1-.06-29.07,9.97-54.05,28.23-76.32l6.21,7.82c5.72-9.59,11.52-19.4,17.43-29.15,1.08-1.79,2.58-3.33,4.15-5.32,3.89,5.47,7.56,10.64,11.23,15.81,3.18-5.54,6.27-11.2,9.64-16.7C154.38,6.73,156.95,3.42,159.35,0c.25,0,.5,0,.75,0,5.86,8.71,11.73,17.42,17.6,26.15,3.2-4.46,6.83-9.51,10.61-14.77,9.67,10.45,15.58,22.54,21,35.42,2.48-3.16,4.67-5.95,7.52-9.59,5.64,8.77,10.96,17.03,16.42,25.5-2.24,1.29-3.82,2.19-5.4,3.1-1.7,.64-3.4,1.29-5.19,1.96-2.06-3.63-4-7.03-6.43-11.31-3.16,6.44-5.88,12.14-8.75,17.76-1.35,2.64-1.08,4.56,.9,7.01,8.67,10.74,16.06,22.19,18.61,36.16,.54,2.96,1.88,5.78,2.86,8.66l1.06,.13c.58-1.5,1.47-2.96,1.7-4.51,1.92-12.96,.14-25.58-3.69-37.99q-1.64-5.29,3.16-7.76l5.48-1.6c4.87,12.76,7.41,25.87,7.11,39.56,9.11-4.76,18.15-9.47,28.14-14.68,.25,5.16,.53,9.07,.61,12.98,.37,18.7-.75,37.22-7.78,54.84-5.32,13.31-13.56,23.76-28.24,27.62-1.12,.29-2.17,1.86-2.74,3.08-3.58,7.62-8.49,14.07-15.67,18.63-9.82,6.24-21.02,5.88-30.41-.98-1-.73-1.96-1.5-2.77-2.12-2.69,3.31-5.35,6.5-7.89,9.78-.55,.72-.95,1.77-.95,2.67-.07,9.99-.04,19.98-.04,30.66,1.15-.88,1.91-1.36,2.55-1.96,24.39-22.72,53.29-34.47,86.53-35.16,17.81-.37,35.64-.07,53.46-.07,.04,.32,.19,.66,.09,.77-14,15.55-29.06,29.85-47.41,40.24-16.35,9.26-34.1,13.88-52.69,14.97-13.05,.77-26.16,.54-39.25,.76-.97,.02-1.95,0-3.3,0v50.74c-2.11,.13-3.83,.24-5.56,.35l-5.8-.42v-96.89h-11.25v4.63c0,39.25,0,78.5,0,117.75,0,6.62,.08,13.24,.12,19.87-.1,4.02-.19,8.04-.29,12.06h-11.23c.02-35.72,.05-71.44,.06-107.16,0-.22-.16-.44-.29-.76-6.91,0-13.85,0-20.79,0-22.32,.02-44.28-2.12-64.95-11.45-19.42-8.77-35.16-22.48-49.77-37.65-2.29-2.38-4.51-4.84-7.14-7.66H58.45c0,2,0,3.82,0,5.64-.16,1.79-.32,3.59-.5,5.63H27.19c14.33,14.66,30.83,23.89,49.72,29.01,18.75,5.09,37.84,5.82,57.06,4.88l.42-.95c-4.14-3.33-8.29-6.66-12.43-9.98-15.65-11.99-33.46-18.82-52.81-21.96,.14-2.08,.27-3.91,.39-5.75ZM171.31,44.26l.51,.24-.48-.27c-2.6-6.28-5.13-12.6-7.84-18.83-.85-1.95-2.19-3.7-3.96-6.63-4.32,9.2-8.13,17.31-11.94,25.43l.95,.53c3.06-2.33,6.19-4.59,9.17-7.02,1.66-1.35,2.93-1.27,4.59,.03,2.91,2.29,5.99,4.36,9,6.52Zm-5.36,65.24l-5.9-11.28c-9.81,16.33-15.99,32.81-16.62,51.15,1.05-1.24,1.63-2.72,2.51-4,4.67-6.84,9.42-13.63,14.14-20.44,5.56,7.87,11.11,15.74,16.66,23.6-.69-13.73-4.55-26.7-10.79-39.03Zm89.15,12.03c-2.97,2.04-5.87,4.17-8.92,6.08-1.77,1.11-1.99,2.36-1.72,4.35,2,14.86,1.05,29.57-2.53,44.12-.42,1.7-.65,3.44-.96,5.17l1.29,.78c2.56-3.04,5.12-6.07,7.69-9.11,5.11-7.38,7.86-15.75,10-24.34,2.56-10.27,3.54-20.71,3.22-32.08-3.09,1.93-5.58,3.48-8.07,5.03Zm-179.71,34.44c.07-6.36-.82-12.92,.47-19.02,1.51-7.17-1.59-10.57-7.1-13.32-3.56-2.28-7.12-4.57-10.68-6.85l-1.05,.75c.67,7.67,1,15.39,2.1,23,1.62,11.16,5.09,21.79,10.85,31.57,2.34,3.97,5.19,7.41,9.55,9.57-1.42-8.82-2.78-17.26-4.14-25.69Zm154.08,81.4h-.11c-16.73,5-30.96,14.01-43.81,26.8,1.34,.21,1.8,.36,2.26,.35,11.57-.19,23.17,.06,34.71-.72,11.04-.75,21.83-3.32,32-7.96,14.49-5.43,26.88-14.02,38.71-25.47-9.36,0-17.57-.36-25.74,.08-12.57,.68-25.06,2.21-37,6.63l-1.01,.3ZM121.79,111.81c-2.19-4.36-4.37-8.71-6.81-13.57-1.07,1.36-1.69,1.87-1.95,2.52-4.32,11-8.65,21.99-12.78,33.06-.32,.85,.5,2.6,1.33,3.32,2.82,2.45,6.04,4.44,8.82,6.93,6.57,5.88,12.98,11.94,20.15,18.58,.34-4.97,.66-9.59,.97-14.2-.25-13.01-4.25-25.02-9.74-36.63Zm89.3-4.16c-1.75-3-3.51-6-5.8-9.92-2.65,5.02-4.84,8.77-6.65,12.69-6.48,14.04-11.38,28.48-10.11,44.28,.22,2.72,1,5.4,1.68,8.95,8.96-10.54,18.15-19.21,28.86-26.21,.66-.43,1.05-1.97,.88-2.86-.55-2.91-1.42-5.75-2.16-8.62-2.23-6.11-4.46-12.21-6.69-18.32Zm-113.81,41.4c-3.33-2.23-6.67-4.45-10.56-7.05-.68,14,1.58,26.54,5.18,38.9,2.31,7.94,5.39,15.52,10.81,21.92,5.26,6.22,12.27,8.01,19.33,5.04,5.97-2.1,10.55-8.34,9.72-15.13-.58-4.78-2.14-9.81-4.6-13.93-7.39-12.38-18.03-21.73-29.88-29.74Zm68.93,67.96c2.66-2.83,6.55-5.24,7.7-8.59,1.94-5.62,3.13-11.88,2.87-17.79-.63-14.17-5.99-27.06-12.73-39.39-1.26-2.39-2.52-4.77-4.16-7.87-10.02,17.48-16.9,35.06-16.79,54.7,.03,5.64,1.74,11.09,5.67,15.53,4.78,5.4,11.28,6.69,17.44,3.41Zm41.18-8.29c7.23-1.45,11.66-6.44,14.98-12.47,8.83-16.03,11.84-33.43,11.62-51.54v-2.33c-15.98,9.32-30.69,19.33-40.12,35.34-3.07,5.21-5,10.89-4.54,17.08,.81,10.9,9.77,16.67,18.05,13.91ZM128.68,78.78c-2.55,2.83-5.1,5.66-7.04,7.82,5.61,11.07,10.9,21.53,16.13,31.87,1.74-4.15,3.69-8.81,5.64-13.47,4.24-9.29,9.76-17.74,16.62-25.55,2.57,3.2,4.97,6.18,7.38,9.17,5.2,9.91,10.39,19.83,15.53,29.63,1.86-4.49,3.8-9.2,5.74-13.9,3.29-5.69,6.58-11.37,10-17.27-11.42-13.7-24.54-25.84-39.4-37.47-10.28,9.8-20.44,19.49-30.59,29.17Zm-39.33,47.04l1.13-.32c1.81-6.21,3.28-12.54,5.49-18.6,3.54-9.72,9.45-18.09,15.85-26.14,.89-1.12,1.89-3.14,1.46-4.15-2.83-6.59-6.05-13.01-9.6-20.45-2.81,5.39-5.23,9.6-7.26,14-7.53,16.26-11.59,33.18-8.99,51.22,.22,1.54,1.26,2.96,1.92,4.44Zm33.73-57.07c2.42-2.64,4.5-5.13,6.81-7.39,5.74-5.63,4.4-13.66,6.98-20.35,.1-.26-.19-.71-.37-1.03-1.67-3.02-3.35-6.03-5.63-10.13-3.69,7.85-6.78,14.89-10.29,21.72-3.11,6.07-2.02,11.36,2.5,17.18Zm73.81,.23c3.47-5.44,5.83-9.93,2.88-15.63-3.37-6.52-6.31-13.27-9.49-19.9-.39-.82-1.1-1.48-1.75-2.32-4.05,5.24-7.06,10.23-3.84,16.86,1.11,2.29,1.12,5.09,1.79,7.62,.34,1.28,.8,2.68,1.63,3.66,2.73,3.23,5.66,6.29,8.77,9.71Z"/><path class="b" d="M171.37,360.53c1.71,.08,3.42,.17,5.94,.29v23.18h-11.98c.02-3.99,.05-7.98,.07-11.97v-11.18c2.32-.12,4.14-.22,5.96-.31Z"/><path class="e" d="M165.41,372.03c-.02,3.99-.05,7.98-.07,11.97h-11.23c.1-4.02,.19-8.04,.29-12.06,3.67,.03,7.34,.06,11.02,.09Z"/><path class="h" d="M165.41,372.03c-3.67-.03-7.34-.06-11.02-.09-.04-6.62-.12-13.24-.12-19.87-.01-39.25,0-78.5,0-117.75v-4.63h11.25v96.89l5.8,.42c.01,3.67,.03,7.34,.04,11.01-1.81,.1-3.63,.19-5.63,.3v10.9c1.99,.12,3.79,.23,5.6,.34,.01,3.66,.03,7.33,.04,10.99-1.82,.1-3.64,.19-5.96,.31v11.18Z"/><path class="i" d="M232.07,75.93q-4.79,2.47-3.16,7.76c3.84,12.41,5.62,25.04,3.69,37.99-.23,1.55-1.12,3.01-1.7,4.51l-1.06-.13c-.97-2.88-2.31-5.7-2.86-8.66-2.55-13.97-9.95-25.42-18.61-36.16-1.98-2.45-2.25-4.37-.9-7.01,2.87-5.63,5.59-11.33,8.75-17.76,2.43,4.28,4.37,7.68,6.43,11.31,1.79-.68,3.49-1.32,5.19-1.96,1.41,3.37,2.82,6.75,4.23,10.12Z"/><path class="d" d="M171.32,349.54c-1.8-.11-3.61-.22-5.6-.34v-10.9c2-.11,3.82-.2,5.63-.3,1.71,.08,3.41,.17,5.33,.26v10.91c-1.8,.12-3.58,.24-5.37,.36Z"/><path class="h" d="M69.54,225.83c-.13,1.84-.25,3.68-.39,5.75,19.34,3.15,37.16,9.97,52.81,21.96-.8,.24-1.6,.72-2.39,.69-5.71-.17-11.42-.25-17.11-.72-16.6-1.38-32.05-6.62-46.5-14.78-4.16-2.35-7.92-5.41-11.86-8.15h13.85c.18-2.04,.34-3.83,.5-5.63,3.7,.29,7.4,.58,11.09,.87Z"/><path class="i" d="M167.4,88.63c-2.4-2.99-4.81-5.97-7.38-9.17-6.85,7.81-12.38,16.25-16.62,25.54-.33-.16-.82-.23-.96-.49-4.61-8.57-9.19-17.15-13.78-25.74,10.16-9.69,20.31-19.37,30.59-29.17,14.87,11.64,27.99,23.77,39.4,37.47-3.42,5.9-6.71,11.59-10,17.27-2.04-3.79-4.01-7.63-6.15-11.37-2.55-4.47-5.25-8.86-8.12-13.68-2.63,3.51-4.82,6.42-7,9.32Z"/><path class="h" d="M230.5,237.08c11.94-4.42,24.42-5.96,37-6.63,8.17-.44,16.38-.08,25.74-.08-11.83,11.45-24.21,20.04-38.71,25.47-14.07,0-28.14,0-42.2,0l-.29-.97c5.03-4.78,10.08-9.54,15.05-14.37,.91-.88,1.53-2.07,2.29-3.11h.11c.34-.11,.67-.21,1.01-.31Z"/><path class="e" d="M44.09,230.58c3.94,2.74,7.7,5.8,11.86,8.15,14.45,8.16,29.9,13.4,46.5,14.78,5.68,.47,11.4,.55,17.11,.72,.79,.02,1.59-.45,2.39-.69,4.15,3.33,8.29,6.66,12.43,9.99l-.42,.95c-19.22,.93-38.3,.2-57.06-4.88-18.89-5.12-35.39-14.35-49.72-29.01h16.9Z"/><path class="l" d="M234,144.72c.22,18.11-2.79,35.51-11.62,51.54-3.32,6.03-7.75,11.02-14.99,12.47-2.3-3.82-4.59-7.65-6.88-11.47h10.22v-11.66h-10.25c.07-.49,.08-1,.23-1.47,4.21-12.57,12.51-22.26,22.08-30.96,3.45-3.14,7.46-5.65,11.21-8.45Z"/><path class="k" d="M164.06,151.25c6.74,12.33,12.11,25.22,12.73,39.39,.26,5.91-.93,12.18-2.87,17.79-1.16,3.35-5.04,5.76-7.7,8.59-7.08-4.82-11.27-11.36-11.9-20.02h10.89v-10.87h-11.01c.73-4.61,.96-9.37,2.29-13.79,2.14-7.14,5.01-14.07,7.57-21.09Z"/><path class="l" d="M97.28,149.05c11.85,8.01,22.48,17.37,29.88,29.74,2.46,4.12,4.01,9.15,4.6,13.93,.83,6.8-3.75,13.03-9.72,15.13-.93-.61-2.05-1.05-2.75-1.86-2.46-2.8-4.77-5.73-7.14-8.61,2.68-.17,5.36-.33,8.01-.5v-10.89h-10.77c-.15,2.14-.29,4.1-.43,6.05-.57-.59-1.36-1.09-1.69-1.79-6.08-13.06-9.2-26.85-9.99-41.21Z"/><path class="i" d="M217.79,125.97c.75,2.87,1.61,5.72,2.16,8.62,.17,.89-.22,2.43-.88,2.86-10.7,6.99-19.89,15.67-28.86,26.21-.68-3.55-1.46-6.23-1.68-8.95-1.27-15.81,3.63-30.25,10.11-44.28,1.81-3.92,4-7.67,6.65-12.69,2.29,3.92,4.05,6.92,5.8,9.92-3.88,9.69-8.12,19.27-10.1,30.17,5.96-4.21,11.38-8.03,16.79-11.85Z"/><path class="i" d="M89.34,125.82c-.66-1.48-1.69-2.9-1.92-4.44-2.6-18.04,1.46-34.96,8.99-51.22,2.03-4.39,4.45-8.6,7.26-14,3.55,7.45,6.77,13.87,9.6,20.45,.43,1.01-.57,3.03-1.46,4.15-6.4,8.05-12.31,16.42-15.85,26.14-2.21,6.06-3.69,12.39-5.49,18.6l-1.13,.32Z"/><path class="i" d="M131.54,148.45c-.32,4.61-.63,9.23-.97,14.2-7.18-6.64-13.58-12.7-20.15-18.58-2.78-2.49-6-4.48-8.82-6.93-.83-.72-1.65-2.47-1.33-3.32,4.13-11.07,8.46-22.06,12.78-33.06,.26-.65,.88-1.16,1.95-2.52,2.44,4.86,4.62,9.21,6.81,13.57-2.59,5.75-5.27,11.47-7.69,17.3-.41,.99-.16,2.91,.56,3.61,5.52,5.35,11.23,10.51,16.88,15.73Z"/><path class="i" d="M97.28,149.05c.78,14.36,3.91,28.15,9.99,41.21,.33,.71,1.12,1.2,1.69,1.79,.62,2.05-1.09,5.48,3.19,5.34,2.37,2.88,4.68,5.8,7.14,8.61,.71,.81,1.82,1.25,2.75,1.86-7.07,2.97-14.07,1.18-19.33-5.04-5.42-6.4-8.5-13.98-10.81-21.92-3.59-12.36-5.85-24.9-5.18-38.9,3.89,2.6,7.23,4.83,10.56,7.05Z"/><path class="i" d="M154.32,196.99c.63,8.66,4.82,15.21,11.9,20.02-6.16,3.28-12.66,1.99-17.44-3.41-3.93-4.44-5.63-9.89-5.67-15.53-.11-19.64,6.77-37.22,16.79-54.7,1.64,3.1,2.9,5.48,4.16,7.87-2.56,7.02-5.43,13.94-7.57,21.09-1.33,4.43-1.56,9.18-2.29,13.79,.04,3.62,.08,7.24,.12,10.87Z"/><path class="e" d="M229.38,237.39c-.76,1.05-1.38,2.23-2.29,3.11-4.98,4.83-10.03,9.59-15.05,14.37l.29,.97c14.07,0,28.14,0,42.2,0-10.17,4.65-20.96,7.22-32,7.96-11.53,.78-23.13,.53-34.71,.72-.46,0-.91-.13-2.26-.35,12.85-12.79,27.08-21.8,43.81-26.79Z"/><path class="i" d="M75.4,155.97c1.36,8.44,2.72,16.88,4.14,25.69-4.35-2.16-7.21-5.6-9.55-9.57-5.76-9.78-9.24-20.41-10.85-31.57-1.1-7.61-1.43-15.33-2.1-23l1.05-.75c3.56,2.28,7.12,4.57,10.68,6.85-.23,1.16-.75,2.35-.63,3.48,.32,3.06,.64,6.15,1.43,9.11,1.79,6.63,3.86,13.18,5.82,19.76Z"/><path class="i" d="M200.51,197.26c2.29,3.82,4.59,7.65,6.88,11.47-8.28,2.76-17.24-3.01-18.05-13.91-.46-6.19,1.46-11.87,4.54-17.08,9.44-16.01,24.15-26.03,40.12-35.34,0,1.14,0,1.74,0,2.33-3.75,2.8-7.77,5.32-11.21,8.45-9.56,8.7-17.87,18.39-22.08,30.96-.15,.46-.16,.98-.23,1.47l.03,11.66Z"/><path class="i" d="M249.95,172.92c-2.56,3.04-5.12,6.07-7.69,9.11l-1.29-.78c.32-1.72,.54-3.47,.96-5.17,3.58-14.55,4.53-29.27,2.53-44.12-.27-1.99-.05-3.24,1.72-4.35,3.05-1.91,5.95-4.04,8.92-6.08-.48,11.56-.65,23.15-1.59,34.67-.46,5.63-2.34,11.15-3.57,16.72Z"/><path class="i" d="M160.09,124.93c-4.72,6.81-9.46,13.6-14.14,20.44-.88,1.28-1.46,2.76-2.51,4,.63-18.34,6.81-34.82,16.62-51.15,2.17,4.16,4.04,7.72,5.9,11.28-1.96,5.14-3.91,10.28-5.87,15.43Z"/><path class="i" d="M123.07,68.76c-4.53-5.82-5.62-11.11-2.5-17.18,3.51-6.83,6.6-13.88,10.29-21.72,2.28,4.1,3.96,7.11,5.63,10.13,.18,.32,.47,.77,.37,1.03-2.58,6.69-1.23,14.71-6.98,20.35-2.31,2.26-4.39,4.75-6.81,7.39Z"/><path class="i" d="M196.88,68.99c-3.12-3.42-6.04-6.48-8.77-9.71-.83-.98-1.29-2.38-1.63-3.66-.67-2.53-.68-5.33-1.79-7.62-3.22-6.63-.21-11.62,3.84-16.86,.65,.84,1.36,1.5,1.75,2.32,3.18,6.63,6.11,13.37,9.49,19.9,2.95,5.7,.59,10.19-2.88,15.63Z"/><path class="l" d="M128.68,78.78c4.58,8.58,9.16,17.17,13.78,25.74,.14,.26,.63,.33,.96,.49-1.95,4.66-3.9,9.32-5.64,13.47-5.24-10.34-10.53-20.8-16.13-31.87,1.94-2.16,4.49-4.99,7.04-7.82Z"/><path class="l" d="M167.4,88.63c2.18-2.91,4.37-5.82,7-9.32,2.87,4.82,5.57,9.21,8.12,13.68,2.14,3.74,4.1,7.58,6.15,11.37-1.94,4.7-3.89,9.41-5.74,13.9-5.14-9.8-10.33-19.71-15.53-29.63Z"/><path class="m" d="M131.54,148.45c-5.65-5.22-11.36-10.37-16.88-15.73-.72-.7-.97-2.62-.56-3.61,2.42-5.83,5.1-11.54,7.69-17.3,5.5,11.61,9.49,23.62,9.74,36.63Z"/><path class="o" d="M249.95,172.92c1.24-5.57,3.12-11.09,3.57-16.72,.93-11.52,1.1-23.11,1.59-34.67,2.48-1.55,4.97-3.1,8.06-5.03,.31,11.38-.67,21.82-3.22,32.08-2.14,8.59-4.89,16.96-10,24.34Z"/><path class="n" d="M160.09,124.93c1.96-5.14,3.91-10.28,5.87-15.43,6.24,12.33,10.11,25.3,10.79,39.03-5.55-7.86-11.11-15.73-16.66-23.6Z"/><path class="i" d="M171.31,44.26c-3.01-2.16-6.09-4.23-9-6.52-1.65-1.3-2.93-1.38-4.59-.03-2.98,2.44-6.11,4.69-9.17,7.02l-.95-.53c3.81-8.12,7.62-16.24,11.94-25.43,1.78,2.93,3.11,4.68,3.96,6.63,2.71,6.24,5.24,12.55,7.84,18.83l-.03,.03Z"/><path class="m" d="M217.79,125.97c-5.41,3.82-10.83,7.64-16.79,11.85,1.98-10.9,6.21-20.47,10.1-30.17,2.23,6.11,4.46,12.21,6.7,18.32Z"/><path class="m" d="M75.4,155.97c-1.96-6.58-4.04-13.13-5.82-19.76-.8-2.95-1.12-6.05-1.43-9.11-.12-1.13,.4-2.32,.63-3.48,5.5,2.75,8.61,6.15,7.09,13.32-1.29,6.1-.4,12.66-.47,19.02Z"/><path class="j" d="M171.34,44.23l.48,.27c-.17-.08-.34-.16-.51-.24l.03-.03Z"/><path class="p" d="M230.5,237.08c-.34,.1-.67,.2-1.01,.3,.34-.1,.67-.2,1.01-.3Z"/><path class="f" d="M200.51,197.26l-.03-11.66c3.33,0,6.66,0,10.25,0v11.66h-10.22Z"/><path class="g" d="M154.32,196.99c-.04-3.62-.08-7.24-.12-10.87,3.56,0,7.12,0,11.01,0v10.87h-10.89Z"/><path class="f" d="M112.15,197.39c-4.27,.15-2.57-3.29-3.19-5.34,.14-1.95,.28-3.91,.43-6.05h10.77v10.89c-2.65,.16-5.33,.33-8.01,.5Z"/></svg>